<svg width="72" height="72" viewBox="0 0 72 72" fill="none" xmlns="http://www.w3.org/2000/svg">
<rect width="72" height="72" rx="12" fill="#F58342" fill-opacity="0.16"/>
<path d="M40.26 42.39C44.79 43.245 48 45.435 48 48V51H24V48C24 45.435 27.21 43.245 31.74 42.39L36 49.5L40.26 42.39ZM30 30H42V33C42 34.5913 41.3679 36.1174 40.2426 37.2427C39.1174 38.3679 37.5913 39 36 39C34.4087 39 32.8826 38.3679 31.7574 37.2427C30.6321 36.1174 30 34.5913 30 33V30ZM30 28.5L30.615 22.35C30.6523 21.9787 30.8267 21.6347 31.104 21.3851C31.3814 21.1354 31.7418 20.9981 32.115 21H39.9C40.665 21 41.31 21.585 41.385 22.35L42 28.5H30ZM36 22.5H34.5V24H33V25.5H34.5V27H36V25.5H37.5V24H36V22.5Z" fill="#F58342"/>
</svg>
