<svg width="56" height="56" viewBox="0 0 56 56" fill="none" xmlns="http://www.w3.org/2000/svg">
<rect opacity="0.16" width="56" height="56" rx="12" fill="#999999"/>
<path d="M37 35V36H19V35L21 33V27C21 23.9 23.03 21.17 26 20.29V20C26 19.4696 26.2107 18.9609 26.5858 18.5858C26.9609 18.2107 27.4696 18 28 18C28.5304 18 29.0391 18.2107 29.4142 18.5858C29.7893 18.9609 30 19.4696 30 20V20.29C32.97 21.17 35 23.9 35 27V33L37 35ZM30 37C30 37.5304 29.7893 38.0391 29.4142 38.4142C29.0391 38.7893 28.5304 39 28 39C27.4696 39 26.9609 38.7893 26.5858 38.4142C26.2107 38.0391 26 37.5304 26 37" fill="#999999"/>
</svg>
