<svg width="88" height="88" viewBox="0 0 88 88" fill="none" xmlns="http://www.w3.org/2000/svg">
<rect width="88" height="88" rx="12" fill="#F58342" fill-opacity="0.16"/>
<path d="M25.6666 62.3334V34.8334C25.6666 34.3472 25.8598 33.8809 26.2036 33.5371C26.5474 33.1932 27.0137 33.0001 27.5 33.0001H34.8333V25.6667H53.1666V33.0001H60.5C60.9862 33.0001 61.4525 33.1932 61.7963 33.5371C62.1401 33.8809 62.3333 34.3472 62.3333 34.8334V62.3334H47.6666V53.1667H40.3333V62.3334H25.6666ZM38.5 29.3334V40.3334H42.1666V36.6667H45.8333V40.3334H49.5V29.3334H45.8333V33.0001H42.1666V29.3334H38.5ZM29.3333 58.6667H36.6666V53.1667H29.3333V58.6667ZM29.3333 49.5001H36.6666V44.0001H29.3333V49.5001ZM51.3333 58.6667H58.6666V53.1667H51.3333V58.6667ZM51.3333 49.5001H58.6666V44.0001H51.3333V49.5001ZM40.3333 49.5001H47.6666V44.0001H40.3333V49.5001Z" fill="#F58342"/>
</svg>
