<svg width="72" height="72" viewBox="0 0 72 72" fill="none" xmlns="http://www.w3.org/2000/svg">
<rect width="72" height="72" rx="12" fill="#F58342" fill-opacity="0.16"/>
<path d="M43.5 45C41.835 45 40.5 46.335 40.5 48C40.5 48.7956 40.8161 49.5587 41.3787 50.1213C41.9413 50.6839 42.7043 51 43.5 51C44.2956 51 45.0587 50.6839 45.6213 50.1213C46.1839 49.5587 46.5 48.7956 46.5 48C46.5 47.2043 46.1839 46.4413 45.6213 45.8787C45.0587 45.3161 44.2956 45 43.5 45ZM19.5 21V24H22.5L27.9 35.385L25.86 39.06C25.635 39.48 25.5 39.975 25.5 40.5C25.5 41.2956 25.8161 42.0587 26.3787 42.6213C26.9413 43.1839 27.7043 43.5 28.5 43.5H46.5V40.5H29.13C29.0305 40.5 28.9352 40.4605 28.8648 40.3902C28.7945 40.3198 28.755 40.2245 28.755 40.125C28.755 40.05 28.77 39.99 28.8 39.945L30.15 37.5H41.325C42.45 37.5 43.44 36.87 43.95 35.955L49.32 26.25C49.425 26.01 49.5 25.755 49.5 25.5C49.5 25.1022 49.342 24.7206 49.0607 24.4393C48.7794 24.158 48.3978 24 48 24H25.815L24.405 21H19.5ZM28.5 45C26.835 45 25.5 46.335 25.5 48C25.5 48.7956 25.8161 49.5587 26.3787 50.1213C26.9413 50.6839 27.7043 51 28.5 51C29.2956 51 30.0587 50.6839 30.6213 50.1213C31.1839 49.5587 31.5 48.7956 31.5 48C31.5 47.2043 31.1839 46.4413 30.6213 45.8787C30.0587 45.3161 29.2956 45 28.5 45Z" fill="#F58342"/>
</svg>
