<svg width="36" height="36" viewBox="0 0 36 36" fill="none" xmlns="http://www.w3.org/2000/svg">
<path d="M33.6896 9C32.5346 9.525 31.2896 9.87 29.9996 10.035C31.3196 9.24 32.3396 7.98 32.8196 6.465C31.5746 7.215 30.1946 7.74 28.7396 8.04C27.5546 6.75 25.8896 6 23.9996 6C20.4746 6 17.5946 8.88 17.5946 12.435C17.5946 12.945 17.6546 13.44 17.7596 13.905C12.4196 13.635 7.66457 11.07 4.49957 7.185C3.94457 8.13 3.62957 9.24 3.62957 10.41C3.62957 12.645 4.75457 14.625 6.49457 15.75C5.42957 15.75 4.43957 15.45 3.56957 15V15.045C3.56957 18.165 5.78957 20.775 8.72957 21.36C7.78566 21.6183 6.79471 21.6543 5.83457 21.465C6.24198 22.7437 7.03988 23.8626 8.1161 24.6644C9.19231 25.4662 10.4927 25.9105 11.8346 25.935C9.56002 27.7357 6.74056 28.709 3.83957 28.695C3.32957 28.695 2.81957 28.665 2.30957 28.605C5.15957 30.435 8.54957 31.5 12.1796 31.5C23.9996 31.5 30.4946 21.69 30.4946 13.185C30.4946 12.9 30.4946 12.63 30.4796 12.345C31.7396 11.445 32.8196 10.305 33.6896 9Z" fill="#535353"/>
</svg>
