<svg width="36" height="36" viewBox="0 0 36 36" fill="none" xmlns="http://www.w3.org/2000/svg">
<path d="M18 3.06055C9.75 3.06055 3 9.79555 3 18.0905C3 25.5905 8.49 31.8155 15.66 32.9405V22.4405H11.85V18.0905H15.66V14.7755C15.66 11.0105 17.895 8.94055 21.33 8.94055C22.965 8.94055 24.675 9.22555 24.675 9.22555V12.9305H22.785C20.925 12.9305 20.34 14.0855 20.34 15.2705V18.0905H24.51L23.835 22.4405H20.34V32.9405C23.8747 32.3823 27.0933 30.5788 29.4149 27.8556C31.7365 25.1325 33.008 21.669 33 18.0905C33 9.79555 26.25 3.06055 18 3.06055Z" fill="#535353"/>
</svg>
