<svg width="24" height="24" viewBox="0 0 24 24" fill="none" xmlns="http://www.w3.org/2000/svg">
<path d="M11.03 19H5V5H7V7H17V5H19V9.5C19.72 9.8 20.4 10.24 21 10.82V5C21 4.46957 20.7893 3.96086 20.4142 3.58579C20.0391 3.21071 19.5304 3 19 3H14.82C14.4 1.84 13.3 1 12 1C10.7 1 9.6 1.84 9.18 3H5C3.9 3 3 3.9 3 5V19C3 19.5304 3.21071 20.0391 3.58579 20.4142C3.96086 20.7893 4.46957 21 5 21H13.06C12.65 20.74 12.26 20.45 11.9 20.1C11.57 19.76 11.27 19.39 11.03 19ZM12 3C12.55 3 13 3.45 13 4C13 4.55 12.55 5 12 5C11.45 5 11 4.55 11 4C11 3.45 11.45 3 12 3ZM20.31 17.9C20.75 17.21 21 16.38 21 15.5C21 13 19 11 16.5 11C14 11 12 13 12 15.5C12 18 14 20 16.5 20C17.37 20 18.19 19.75 18.88 19.32L22 22.39L23.39 21L20.31 17.9ZM16.5 18C15.837 18 15.2011 17.7366 14.7322 17.2678C14.2634 16.7989 14 16.163 14 15.5C14 14.837 14.2634 14.2011 14.7322 13.7322C15.2011 13.2634 15.837 13 16.5 13C17.163 13 17.7989 13.2634 18.2678 13.7322C18.7366 14.2011 19 14.837 19 15.5C19 16.163 18.7366 16.7989 18.2678 17.2678C17.7989 17.7366 17.163 18 16.5 18Z" fill="#999999"/>
</svg>
