<svg width="72" height="72" viewBox="0 0 72 72" fill="none" xmlns="http://www.w3.org/2000/svg">
<rect width="72" height="72" rx="12" fill="#F58342" fill-opacity="0.16"/>
<path d="M36 26.25C37.3924 26.25 38.7277 26.8031 39.7123 27.7877C40.6969 28.7723 41.25 30.1076 41.25 31.5C41.25 32.8924 40.6969 34.2277 39.7123 35.2123C38.7277 36.1969 37.3924 36.75 36 36.75C34.6076 36.75 33.2723 36.1969 32.2877 35.2123C31.3031 34.2277 30.75 32.8924 30.75 31.5C30.75 30.1076 31.3031 28.7723 32.2877 27.7877C33.2723 26.8031 34.6076 26.25 36 26.25ZM25.5 30C26.34 30 27.12 30.225 27.795 30.63C27.57 32.775 28.2 34.905 29.49 36.57C28.74 38.01 27.24 39 25.5 39C24.3065 39 23.1619 38.5259 22.318 37.682C21.4741 36.8381 21 35.6935 21 34.5C21 33.3065 21.4741 32.1619 22.318 31.318C23.1619 30.4741 24.3065 30 25.5 30ZM46.5 30C47.6935 30 48.8381 30.4741 49.682 31.318C50.5259 32.1619 51 33.3065 51 34.5C51 35.6935 50.5259 36.8381 49.682 37.682C48.8381 38.5259 47.6935 39 46.5 39C44.76 39 43.26 38.01 42.51 36.57C43.8178 34.8816 44.4249 32.7543 44.205 30.63C44.88 30.225 45.66 30 46.5 30ZM26.25 45.375C26.25 42.27 30.615 39.75 36 39.75C41.385 39.75 45.75 42.27 45.75 45.375V48H26.25V45.375ZM18 48V45.75C18 43.665 20.835 41.91 24.675 41.4C23.79 42.42 23.25 43.83 23.25 45.375V48H18ZM54 48H48.75V45.375C48.75 43.83 48.21 42.42 47.325 41.4C51.165 41.91 54 43.665 54 45.75V48Z" fill="#F58342"/>
</svg>
