<svg width="72" height="72" viewBox="0 0 72 72" fill="none" xmlns="http://www.w3.org/2000/svg">
<rect width="72" height="72" rx="12" fill="#F58342" fill-opacity="0.16"/>
<path d="M48.06 31.065V24H41.01L36 19.035L31.065 24H24V31.065L19.035 36L24 41.01V48.06H31.065L36 53.025L41.01 48.06H48.06V41.01L53.025 36L48.06 31.065ZM31.245 28.575C32.715 28.575 33.9 29.76 33.9 31.245C33.9 31.9491 33.6203 32.6244 33.1224 33.1223C32.6245 33.6203 31.9492 33.9 31.245 33.9C29.76 33.9 28.575 32.715 28.575 31.245C28.575 29.76 29.76 28.575 31.245 28.575ZM40.83 43.5C39.36 43.5 38.175 42.3 38.175 40.83C38.175 40.1258 38.4548 39.4505 38.9527 38.9526C39.4506 38.4547 40.1259 38.175 40.83 38.175C42.3 38.175 43.5 39.36 43.5 40.83C43.5 41.5381 43.2187 42.2172 42.718 42.7179C42.2173 43.2187 41.5382 43.5 40.83 43.5ZM30.75 43.545L28.5 41.295L41.295 28.5L43.545 30.75L30.75 43.545Z" fill="#F58342"/>
</svg>
