<svg width="72" height="72" viewBox="0 0 72 72" fill="none" xmlns="http://www.w3.org/2000/svg">
<rect width="72" height="72" rx="12" fill="#F58342" fill-opacity="0.16"/>
<path d="M25.5 27C23.85 27 22.5 28.35 22.5 30C22.5 31.65 23.85 33 25.5 33C27.15 33 28.5 31.665 28.5 30C28.5 28.335 27.165 27 25.5 27ZM36 24C35.4067 24 34.8266 24.1759 34.3333 24.5056C33.8399 24.8352 33.4554 25.3038 33.2284 25.8519C33.0013 26.4001 32.9419 27.0033 33.0576 27.5853C33.1734 28.1672 33.4591 28.7018 33.8787 29.1213C34.2982 29.5409 34.8328 29.8266 35.4147 29.9424C35.9967 30.0581 36.5999 29.9987 37.148 29.7716C37.6962 29.5446 38.1648 29.1601 38.4944 28.6667C38.8241 28.1734 39 27.5933 39 27C39 25.335 37.665 24 36 24ZM46.5 21C44.85 21 43.5 22.35 43.5 24C43.5 25.65 44.85 27 46.5 27C48.15 27 49.5 25.665 49.5 24C49.5 22.335 48.165 21 46.5 21ZM23.25 34.5C22.005 34.5 21 35.505 21 36.75V43.5H22.5V51H28.5V43.5H30V36.75C30 35.505 28.995 34.5 27.75 34.5H23.25ZM33.75 31.5C32.505 31.5 31.5 32.505 31.5 33.75V40.5H33V48H39V40.5H40.5V33.75C40.5 32.505 39.495 31.5 38.25 31.5H33.75ZM44.25 28.5C43.005 28.5 42 29.505 42 30.75V37.5H43.5V45H49.5V37.5H51V30.75C51 29.505 49.995 28.5 48.75 28.5H44.25Z" fill="#F58342"/>
</svg>
