<svg width="72" height="72" viewBox="0 0 72 72" fill="none" xmlns="http://www.w3.org/2000/svg">
<rect width="72" height="72" rx="12" fill="#F58342" fill-opacity="0.16"/>
<path d="M36.5717 26.2863V31.4291L43.4289 24.572L36.5717 17.7148V22.8577C32.9345 22.8577 29.4462 24.3026 26.8742 26.8745C24.3023 29.4465 22.8574 32.9347 22.8574 36.572C22.8574 39.2634 23.646 41.7663 24.9831 43.8748L27.486 41.372C26.6948 39.896 26.2824 38.2467 26.286 36.572C26.286 33.844 27.3697 31.2278 29.2986 29.2989C31.2276 27.3699 33.8438 26.2863 36.5717 26.2863ZM48.1603 29.2691L45.6574 31.772C46.4117 33.212 46.8574 34.8577 46.8574 36.572C46.8574 39.2999 45.7738 41.9161 43.8448 43.8451C41.9159 45.774 39.2996 46.8577 36.5717 46.8577V41.7148L29.7146 48.572L36.5717 55.4291V50.2863C40.209 50.2863 43.6972 48.8414 46.2692 46.2695C48.8411 43.6975 50.286 40.2092 50.286 36.572C50.286 33.8806 49.4974 31.3777 48.1603 29.2691Z" fill="#F58342"/>
</svg>
