<svg width="36" height="36" viewBox="0 0 36 36" fill="none" xmlns="http://www.w3.org/2000/svg">
<path d="M30 6H6C4.35 6 3 7.35 3 9V13.5H6V9H30V13.5H33V9C33 7.35 31.65 6 30 6ZM30 27H6V22.5H3V27C3 28.65 4.35 30 6 30H30C31.65 30 33 28.65 33 27V22.5H30V27Z" fill="white"/>
<path d="M22.335 11.3255C21.825 10.3055 20.16 10.3055 19.65 11.3255L15 20.6405L13.335 17.3255C13.212 17.0769 13.0217 16.8677 12.7857 16.7218C12.5497 16.576 12.2774 16.4993 12 16.5005H3V19.5005H11.07L13.65 24.6755C13.92 25.1855 14.43 25.5005 15 25.5005C15.57 25.5005 16.08 25.1855 16.335 24.6755L21 15.3605L22.665 18.6755C22.92 19.1855 23.43 19.5005 24 19.5005H33V16.5005H24.93L22.335 11.3255Z" fill="white"/>
</svg>
