<svg width="36" height="36" viewBox="0 0 36 36" fill="none" xmlns="http://www.w3.org/2000/svg">
<path d="M6 19.5H15C15.825 19.5 16.5 18.825 16.5 18V6C16.5 5.175 15.825 4.5 15 4.5H6C5.175 4.5 4.5 5.175 4.5 6V18C4.5 18.825 5.175 19.5 6 19.5ZM6 31.5H15C15.825 31.5 16.5 30.825 16.5 30V24C16.5 23.175 15.825 22.5 15 22.5H6C5.175 22.5 4.5 23.175 4.5 24V30C4.5 30.825 5.175 31.5 6 31.5ZM21 31.5H30C30.825 31.5 31.5 30.825 31.5 30V18C31.5 17.175 30.825 16.5 30 16.5H21C20.175 16.5 19.5 17.175 19.5 18V30C19.5 30.825 20.175 31.5 21 31.5ZM19.5 6V12C19.5 12.825 20.175 13.5 21 13.5H30C30.825 13.5 31.5 12.825 31.5 12V6C31.5 5.175 30.825 4.5 30 4.5H21C20.175 4.5 19.5 5.175 19.5 6Z" fill="white"/>
</svg>
