<svg width="36" height="36" viewBox="0 0 36 36" fill="none" xmlns="http://www.w3.org/2000/svg">
<path d="M16.5 12C16.5 15.315 13.815 18 10.5 18C7.185 18 4.5 15.315 4.5 12C4.5 8.685 7.185 6 10.5 6C13.815 6 16.5 8.685 16.5 12ZM16.5 22.08V30H0V27C0 23.685 4.695 21 10.5 21C12.75 21 14.805 21.405 16.5 22.08ZM36 30H19.5V4.5H36V30ZM24 17.25C24 16.2554 24.3951 15.3016 25.0984 14.5983C25.8016 13.8951 26.7554 13.5 27.75 13.5C28.7446 13.5 29.6984 13.8951 30.4016 14.5983C31.1049 15.3016 31.5 16.2554 31.5 17.25C31.5 18.2446 31.1049 19.1984 30.4016 19.9017C29.6984 20.6049 28.7446 21 27.75 21C26.7554 21 25.8016 20.6049 25.0984 19.9017C24.3951 19.1984 24 18.2446 24 17.25ZM33 10.5C32.2043 10.5 31.4413 10.1839 30.8787 9.62132C30.3161 9.05871 30 8.29565 30 7.5H25.5C25.5 9.165 24.165 10.5 22.5 10.5V24C23.2956 24 24.0587 24.3161 24.6213 24.8787C25.1839 25.4413 25.5 26.2044 25.5 27H30C30 25.35 31.35 24 33 24V10.5Z" fill="white"/>
</svg>
