<svg width="36" height="36" viewBox="0 0 36 36" fill="none" xmlns="http://www.w3.org/2000/svg">
<path d="M30 33.135L33.675 35.37L32.7 31.155L36 28.335L31.665 27.96L30 24L28.305 27.96L24 28.335L27.27 31.155L26.25 35.37L30 33.135ZM21.12 31.5H3C1.425 31.5 0 30.075 0 28.5V7.5C0 5.925 1.425 4.5 3 4.5H33C34.575 4.5 36 5.925 36 7.5V23.295C34.3527 21.8143 32.215 20.9966 30 21C25.035 21 21 25.035 21 30C21 30.51 21.045 31.02 21.12 31.5ZM12 20.865C9 20.865 3 22.5 3 25.5V27H21V25.5C21 22.5 15 20.865 12 20.865ZM12 9C9.525 9 7.5 11.025 7.5 13.5C7.5 15.975 9.525 18 12 18C14.475 18 16.5 15.975 16.5 13.5C16.5 11.025 14.475 9 12 9ZM31.5 15H21V16.5H31.5V15ZM33 12H21V13.5H33V12ZM33 9H21V10.5H33V9Z" fill="white"/>
</svg>
