<svg width="36" height="36" viewBox="0 0 36 36" fill="none" xmlns="http://www.w3.org/2000/svg">
<path d="M7.5 4.5V31.5H16.5V26.25H19.5V31.5H28.5V4.5H7.5ZM10.5 7.5H13.5V10.5H10.5V7.5ZM16.5 7.5H19.5V10.5H16.5V7.5ZM22.5 7.5H25.5V10.5H22.5V7.5ZM10.5 13.5H13.5V16.5H10.5V13.5ZM16.5 13.5H19.5V16.5H16.5V13.5ZM22.5 13.5H25.5V16.5H22.5V13.5ZM10.5 19.5H13.5V22.5H10.5V19.5ZM16.5 19.5H19.5V22.5H16.5V19.5ZM22.5 19.5H25.5V22.5H22.5V19.5ZM10.5 25.5H13.5V28.5H10.5V25.5ZM22.5 25.5H25.5V28.5H22.5V25.5Z" fill="white"/>
</svg>
