<svg width="36" height="36" viewBox="0 0 36 36" fill="none" xmlns="http://www.w3.org/2000/svg">
<path d="M15 0V6H12L18 12L24 6H21V0M1.5 3V6H4.5L9.9 17.385L7.875 21.06C7.635 21.48 7.5 21.975 7.5 22.5C7.5 23.2956 7.81607 24.0587 8.37868 24.6213C8.94129 25.1839 9.70435 25.5 10.5 25.5H28.5V22.5H11.13C10.935 22.5 10.755 22.335 10.755 22.125L10.8 21.945L12.15 19.5H23.325C24.45 19.5 25.44 18.885 25.95 17.955L31.74 7.44L29.13 6H29.115L27.465 9L23.325 16.5H12.795L12.6 16.095L9.24 9L7.815 6L6.405 3M10.5 27C9.70435 27 8.94129 27.3161 8.37868 27.8787C7.81607 28.4413 7.5 29.2044 7.5 30C7.5 30.7956 7.81607 31.5587 8.37868 32.1213C8.94129 32.6839 9.70435 33 10.5 33C11.2956 33 12.0587 32.6839 12.6213 32.1213C13.1839 31.5587 13.5 30.7956 13.5 30C13.5 29.2044 13.1839 28.4413 12.6213 27.8787C12.0587 27.3161 11.2956 27 10.5 27ZM25.5 27C24.7044 27 23.9413 27.3161 23.3787 27.8787C22.8161 28.4413 22.5 29.2044 22.5 30C22.5 30.7956 22.8161 31.5587 23.3787 32.1213C23.9413 32.6839 24.7044 33 25.5 33C26.2956 33 27.0587 32.6839 27.6213 32.1213C28.1839 31.5587 28.5 30.7956 28.5 30C28.5 29.2044 28.1839 28.4413 27.6213 27.8787C27.0587 27.3161 26.2956 27 25.5 27Z" fill="white"/>
</svg>
