<svg width="36" height="36" viewBox="0 0 36 36" fill="none" xmlns="http://www.w3.org/2000/svg">
<path d="M25.5 27C23.835 27 22.5 28.335 22.5 30C22.5 30.7956 22.8161 31.5587 23.3787 32.1213C23.9413 32.6839 24.7044 33 25.5 33C26.2956 33 27.0587 32.6839 27.6213 32.1213C28.1839 31.5587 28.5 30.7956 28.5 30C28.5 29.2044 28.1839 28.4413 27.6213 27.8787C27.0587 27.3161 26.2956 27 25.5 27ZM1.5 3V6H4.5L9.9 17.385L7.86 21.06C7.635 21.48 7.5 21.975 7.5 22.5C7.5 23.2956 7.81607 24.0587 8.37868 24.6213C8.94129 25.1839 9.70435 25.5 10.5 25.5H28.5V22.5H11.13C11.0305 22.5 10.9352 22.4605 10.8648 22.3902C10.7945 22.3198 10.755 22.2245 10.755 22.125C10.755 22.05 10.77 21.99 10.8 21.945L12.15 19.5H23.325C24.45 19.5 25.44 18.87 25.95 17.955L31.32 8.25C31.425 8.01 31.5 7.755 31.5 7.5C31.5 7.10218 31.342 6.72064 31.0607 6.43934C30.7794 6.15804 30.3978 6 30 6H7.815L6.405 3M10.5 27C8.835 27 7.5 28.335 7.5 30C7.5 30.7956 7.81607 31.5587 8.37868 32.1213C8.94129 32.6839 9.70435 33 10.5 33C11.2956 33 12.0587 32.6839 12.6213 32.1213C13.1839 31.5587 13.5 30.7956 13.5 30C13.5 29.2044 13.1839 28.4413 12.6213 27.8787C12.0587 27.3161 11.2956 27 10.5 27Z" fill="white"/>
</svg>
