<svg width="36" height="36" viewBox="0 0 36 36" fill="none" xmlns="http://www.w3.org/2000/svg">
<path d="M18 9V13.5L24 7.5L18 1.5V6C14.8174 6 11.7652 7.26428 9.51472 9.51472C7.26428 11.7652 6 14.8174 6 18C6 20.355 6.69 22.545 7.86 24.39L10.05 22.2C9.35769 20.9085 8.99689 19.4653 9 18C9 15.6131 9.94821 13.3239 11.636 11.636C13.3239 9.94821 15.6131 9 18 9ZM28.14 11.61L25.95 13.8C26.61 15.06 27 16.5 27 18C27 20.3869 26.0518 22.6761 24.364 24.364C22.6761 26.0518 20.3869 27 18 27V22.5L12 28.5L18 34.5V30C21.1826 30 24.2348 28.7357 26.4853 26.4853C28.7357 24.2348 30 21.1826 30 18C30 15.645 29.31 13.455 28.14 11.61Z" fill="white"/>
</svg>
