<svg width="36" height="36" viewBox="0 0 36 36" fill="none" xmlns="http://www.w3.org/2000/svg">
<path d="M22.5 19.5H24.75V23.73L28.41 25.845L27.285 27.795L22.5 25.035V19.5ZM28.5 12H7.5V28.5H14.505C13.86 27.135 13.5 25.605 13.5 24C13.5 21.2152 14.6062 18.5445 16.5754 16.5754C18.5445 14.6062 21.2152 13.5 24 13.5C25.605 13.5 27.135 13.86 28.5 14.505V12ZM7.5 31.5C6.70435 31.5 5.94129 31.1839 5.37868 30.6213C4.81607 30.0587 4.5 29.2956 4.5 28.5V7.5C4.5 5.835 5.835 4.5 7.5 4.5H9V1.5H12V4.5H24V1.5H27V4.5H28.5C29.2956 4.5 30.0587 4.81607 30.6213 5.37868C31.1839 5.94129 31.5 6.70435 31.5 7.5V16.65C33.36 18.54 34.5 21.135 34.5 24C34.5 26.7848 33.3938 29.4555 31.4246 31.4246C29.4555 33.3938 26.7848 34.5 24 34.5C21.135 34.5 18.54 33.36 16.65 31.5H7.5ZM24 16.725C22.0706 16.725 20.2201 17.4915 18.8558 18.8558C17.4915 20.2201 16.725 22.0706 16.725 24C16.725 28.02 19.98 31.275 24 31.275C24.9554 31.275 25.9014 31.0868 26.784 30.7212C27.6667 30.3556 28.4687 29.8197 29.1442 29.1442C29.8197 28.4687 30.3556 27.6667 30.7212 26.784C31.0868 25.9014 31.275 24.9554 31.275 24C31.275 19.98 28.02 16.725 24 16.725Z" fill="white"/>
</svg>
