<svg width="36" height="36" viewBox="0 0 36 36" fill="none" xmlns="http://www.w3.org/2000/svg">
<path d="M15.27 25.5H10.5V22.5H15C15.12 21.48 15.345 20.46 15.75 19.5H10.5V16.5H17.73C17.775 16.455 17.805 16.41 17.85 16.35C19.6836 14.5264 22.164 13.5019 24.75 13.5H10.5V10.5H25.5V13.5H24.75C27.18 13.5 29.61 14.415 31.5 16.23V7.5C31.5 6.70435 31.1839 5.94129 30.6213 5.37868C30.0587 4.81607 29.2956 4.5 28.5 4.5H22.23C21.6 2.76 19.95 1.5 18 1.5C16.05 1.5 14.4 2.76 13.77 4.5H7.5C5.85 4.5 4.5 5.85 4.5 7.5V28.5C4.5 29.2956 4.81607 30.0587 5.37868 30.6213C5.94129 31.1839 6.70435 31.5 7.5 31.5H19.59C18.975 31.11 18.39 30.675 17.85 30.15C16.5 28.815 15.675 27.195 15.27 25.5ZM18 4.5C18.825 4.5 19.5 5.175 19.5 6C19.5 6.825 18.825 7.5 18 7.5C17.175 7.5 16.5 6.825 16.5 6C16.5 5.175 17.175 4.5 18 4.5ZM30.465 26.85C31.125 25.815 31.5 24.57 31.5 23.25C31.5 19.5 28.5 16.5 24.75 16.5C21 16.5 18 19.5 18 23.25C18 27 21 30 24.75 30C26.055 30 27.285 29.625 28.32 28.98L33 33.585L35.085 31.5L30.465 26.85ZM24.75 27C23.7554 27 22.8016 26.6049 22.0984 25.9016C21.3951 25.1984 21 24.2446 21 23.25C21 22.2554 21.3951 21.3016 22.0984 20.5984C22.8016 19.8951 23.7554 19.5 24.75 19.5C25.7446 19.5 26.6984 19.8951 27.4016 20.5984C28.1049 21.3016 28.5 22.2554 28.5 23.25C28.5 24.2446 28.1049 25.1984 27.4016 25.9016C26.6984 26.6049 25.7446 27 24.75 27Z" fill="white"/>
</svg>
