<svg width="36" height="36" viewBox="0 0 36 36" fill="none" xmlns="http://www.w3.org/2000/svg">
<path d="M4.5 21L5.25 21.105L12.105 14.25C11.9675 13.7463 11.9673 13.215 12.1044 12.7112C12.2416 12.2074 12.5111 11.7495 12.885 11.385C14.055 10.2 15.945 10.2 17.115 11.385C17.91 12.165 18.165 13.275 17.895 14.25L21.75 18.105L22.5 18C22.77 18 23.025 18 23.25 18.105L28.605 12.75C28.5 12.525 28.5 12.27 28.5 12C28.5 11.2044 28.8161 10.4413 29.3787 9.87868C29.9413 9.31607 30.7044 9 31.5 9C32.2956 9 33.0587 9.31607 33.6213 9.87868C34.1839 10.4413 34.5 11.2044 34.5 12C34.5 12.7956 34.1839 13.5587 33.6213 14.1213C33.0587 14.6839 32.2956 15 31.5 15C31.23 15 30.975 15 30.75 14.895L25.395 20.25C25.5 20.475 25.5 20.73 25.5 21C25.5 21.7956 25.1839 22.5587 24.6213 23.1213C24.0587 23.6839 23.2956 24 22.5 24C21.7044 24 20.9413 23.6839 20.3787 23.1213C19.8161 22.5587 19.5 21.7956 19.5 21L19.605 20.25L15.75 16.395C15.27 16.5 14.73 16.5 14.25 16.395L7.395 23.25L7.5 24C7.5 24.7956 7.18393 25.5587 6.62132 26.1213C6.05871 26.6839 5.29565 27 4.5 27C3.70435 27 2.94129 26.6839 2.37868 26.1213C1.81607 25.5587 1.5 24.7956 1.5 24C1.5 23.2044 1.81607 22.4413 2.37868 21.8787C2.94129 21.3161 3.70435 21 4.5 21Z" fill="white"/>
</svg>
