<svg width="36" height="36" viewBox="0 0 36 36" fill="none" xmlns="http://www.w3.org/2000/svg">
<path d="M18 24C16.8065 24 15.6619 23.5259 14.818 22.682C13.9741 21.8381 13.5 20.6935 13.5 19.5C13.5 17.82 14.415 16.35 15.75 15.585L30.315 7.155L22.02 21.525C21.27 22.995 19.755 24 18 24ZM18 4.5C20.715 4.5 23.25 5.25 25.455 6.48L22.305 8.295C21 7.785 19.5 7.5 18 7.5C14.8174 7.5 11.7652 8.76428 9.51473 11.0147C7.26429 13.2652 6.00001 16.3174 6.00001 19.5C6.00001 22.815 7.33501 25.815 9.51001 27.975H9.52501C10.11 28.56 10.11 29.505 9.52501 30.09C8.94001 30.675 7.98001 30.675 7.39501 30.105C5.99997 28.714 4.89355 27.061 4.13931 25.241C3.38507 23.4211 2.99789 21.47 3.00001 19.5C3.00001 15.5218 4.58036 11.7064 7.39341 8.8934C10.2065 6.08035 14.0218 4.5 18 4.5ZM33 19.5C33 23.64 31.32 27.39 28.605 30.105C28.02 30.675 27.075 30.675 26.49 30.09C26.351 29.9512 26.2406 29.7864 26.1654 29.6049C26.0901 29.4235 26.0513 29.229 26.0513 29.0325C26.0513 28.836 26.0901 28.6415 26.1654 28.4601C26.2406 28.2786 26.351 28.1138 26.49 27.975C27.6056 26.864 28.4901 25.5431 29.0925 24.0885C29.6949 22.6339 30.0034 21.0744 30 19.5C30 18 29.715 16.5 29.19 15.15L31.005 12C32.25 14.25 33 16.77 33 19.5Z" fill="white"/>
</svg>
