<svg width="36" height="36" viewBox="0 0 36 36" fill="none" xmlns="http://www.w3.org/2000/svg">
<path d="M17.9998 23.25C16.6074 23.25 15.272 22.6969 14.2874 21.7123C13.3029 20.7277 12.7498 19.3924 12.7498 18C12.7498 16.6076 13.3029 15.2723 14.2874 14.2877C15.272 13.3031 16.6074 12.75 17.9998 12.75C19.3921 12.75 20.7275 13.3031 21.7121 14.2877C22.6966 15.2723 23.2498 16.6076 23.2498 18C23.2498 19.3924 22.6966 20.7277 21.7121 21.7123C20.7275 22.6969 19.3921 23.25 17.9998 23.25ZM29.1448 19.455C29.2048 18.975 29.2498 18.495 29.2498 18C29.2498 17.505 29.2048 17.01 29.1448 16.5L32.3098 14.055C32.5948 13.83 32.6698 13.425 32.4898 13.095L29.4898 7.905C29.3098 7.575 28.9048 7.44 28.5748 7.575L24.8398 9.075C24.0598 8.49 23.2498 7.98 22.3048 7.605L21.7498 3.63C21.7193 3.45333 21.6273 3.29314 21.49 3.17783C21.3527 3.06252 21.179 2.99952 20.9998 3H14.9998C14.6248 3 14.3098 3.27 14.2498 3.63L13.6948 7.605C12.7498 7.98 11.9398 8.49 11.1598 9.075L7.42476 7.575C7.09476 7.44 6.68976 7.575 6.50976 7.905L3.50976 13.095C3.31476 13.425 3.40476 13.83 3.68976 14.055L6.85476 16.5C6.79476 17.01 6.74976 17.505 6.74976 18C6.74976 18.495 6.79476 18.975 6.85476 19.455L3.68976 21.945C3.40476 22.17 3.31476 22.575 3.50976 22.905L6.50976 28.095C6.68976 28.425 7.09476 28.545 7.42476 28.425L11.1598 26.91C11.9398 27.51 12.7498 28.02 13.6948 28.395L14.2498 32.37C14.3098 32.73 14.6248 33 14.9998 33H20.9998C21.3748 33 21.6898 32.73 21.7498 32.37L22.3048 28.395C23.2498 28.005 24.0598 27.51 24.8398 26.91L28.5748 28.425C28.9048 28.545 29.3098 28.425 29.4898 28.095L32.4898 22.905C32.6698 22.575 32.5948 22.17 32.3098 21.945L29.1448 19.455Z" fill="white"/>
</svg>
