<svg width="36" height="36" viewBox="0 0 36 36" fill="none" xmlns="http://www.w3.org/2000/svg">
<path d="M6 6C5.20435 6 4.44129 6.31607 3.87868 6.87868C3.31607 7.44129 3 8.20435 3 9V15C3.79565 15 4.55871 15.3161 5.12132 15.8787C5.68393 16.4413 6 17.2044 6 18C6 18.7956 5.68393 19.5587 5.12132 20.1213C4.55871 20.6839 3.79565 21 3 21V27C3 27.7956 3.31607 28.5587 3.87868 29.1213C4.44129 29.6839 5.20435 30 6 30H30C30.7956 30 31.5587 29.6839 32.1213 29.1213C32.6839 28.5587 33 27.7956 33 27V21C32.2044 21 31.4413 20.6839 30.8787 20.1213C30.3161 19.5587 30 18.7956 30 18C30 17.2044 30.3161 16.4413 30.8787 15.8787C31.4413 15.3161 32.2044 15 33 15V9C33 8.20435 32.6839 7.44129 32.1213 6.87868C31.5587 6.31607 30.7956 6 30 6H6ZM23.25 10.5L25.5 12.75L12.75 25.5L10.5 23.25L23.25 10.5ZM13.215 10.56C14.685 10.56 15.87 11.745 15.87 13.215C15.87 13.9192 15.5903 14.5945 15.0924 15.0924C14.5945 15.5903 13.9192 15.87 13.215 15.87C11.745 15.87 10.56 14.685 10.56 13.215C10.56 12.5109 10.8397 11.8355 11.3376 11.3376C11.8355 10.8397 12.5109 10.56 13.215 10.56ZM22.785 20.13C24.255 20.13 25.44 21.315 25.44 22.785C25.44 23.4891 25.1603 24.1645 24.6624 24.6624C24.1645 25.1603 23.4891 25.44 22.785 25.44C21.315 25.44 20.13 24.255 20.13 22.785C20.13 22.0808 20.4097 21.4055 20.9076 20.9076C21.4055 20.4097 22.0808 20.13 22.785 20.13Z" fill="white"/>
</svg>
