<svg width="36" height="36" viewBox="0 0 36 36" fill="none" xmlns="http://www.w3.org/2000/svg">
<path d="M29.25 25.5C29.055 25.5 28.86 25.5 28.665 25.56L26.25 20.685C26.7844 20.164 27.1511 19.4954 27.3033 18.7647C27.4555 18.0341 27.3862 17.2746 27.1043 16.5836C26.8225 15.8925 26.3408 15.3013 25.7209 14.8856C25.1011 14.4699 24.3713 14.2486 23.625 14.25C23.43 14.25 23.25 14.25 23.04 14.31L20.595 9.435C21.315 8.76 21.75 7.815 21.75 6.75C21.75 5.75544 21.3549 4.80161 20.6516 4.09835C19.9484 3.39509 18.9946 3 18 3C17.0054 3 16.0516 3.39509 15.3483 4.09835C14.6451 4.80161 14.25 5.75544 14.25 6.75C14.25 7.815 14.685 8.76 15.39 9.435L12.96 14.31C12.75 14.25 12.57 14.25 12.375 14.25C11.6287 14.2486 10.8989 14.4699 10.2791 14.8856C9.65923 15.3013 9.17755 15.8925 8.89565 16.5836C8.61376 17.2746 8.54447 18.0341 8.69667 18.7647C8.84887 19.4954 9.21563 20.164 9.75 20.685L7.335 25.56C7.14 25.5 6.945 25.5 6.75 25.5C5.75544 25.5 4.80161 25.8951 4.09835 26.5984C3.39509 27.3016 3 28.2554 3 29.25C3 30.2446 3.39509 31.1984 4.09835 31.9016C4.80161 32.6049 5.75544 33 6.75 33C7.24246 33 7.73009 32.903 8.18506 32.7145C8.64003 32.5261 9.05343 32.2499 9.40165 31.9016C9.74987 31.5534 10.0261 31.14 10.2145 30.6851C10.403 30.2301 10.5 29.7425 10.5 29.25C10.5 28.2 10.065 27.24 9.36 26.565L11.79 21.69C12 21.75 12.18 21.75 12.375 21.75C12.57 21.75 12.75 21.75 12.96 21.69L15.405 26.565C14.7 27.24 14.25 28.2 14.25 29.25C14.25 30.2446 14.6451 31.1984 15.3483 31.9016C16.0516 32.6049 17.0054 33 18 33C18.9946 33 19.9484 32.6049 20.6516 31.9016C21.3549 31.1984 21.75 30.2446 21.75 29.25C21.75 28.2554 21.3549 27.3016 20.6516 26.5984C19.9484 25.8951 18.9946 25.5 18 25.5C17.805 25.5 17.61 25.5 17.415 25.56L15 20.685C15.69 20.01 16.125 19.065 16.125 18C16.125 16.935 15.69 15.99 15 15.315L17.415 10.44C17.61 10.5 17.805 10.5 18 10.5C18.195 10.5 18.39 10.5 18.585 10.44L21 15.315C20.325 15.99 19.875 16.95 19.875 18C19.875 18.9946 20.2701 19.9484 20.9734 20.6516C21.6766 21.3549 22.6304 21.75 23.625 21.75C23.82 21.75 24 21.75 24.21 21.69L26.655 26.565C25.95 27.24 25.5 28.2 25.5 29.25C25.5 30.2446 25.8951 31.1984 26.5984 31.9016C27.3016 32.6049 28.2554 33 29.25 33C30.2446 33 31.1984 32.6049 31.9016 31.9016C32.6049 31.1984 33 30.2446 33 29.25C33 28.2554 32.6049 27.3016 31.9016 26.5984C31.1984 25.8951 30.2446 25.5 29.25 25.5Z" fill="white"/>
</svg>
