<svg width="36" height="36" viewBox="0 0 36 36" fill="none" xmlns="http://www.w3.org/2000/svg">
<path d="M30.0602 13.0649V5.99991H23.0102L18.0002 1.03491L13.0652 5.99991H6.00016V13.0649L1.03516 17.9999L6.00016 23.0099V30.0599H13.0652L18.0002 35.0249L23.0102 30.0599H30.0602V23.0099L35.0252 17.9999L30.0602 13.0649ZM13.2452 10.5749C14.7152 10.5749 15.9002 11.7599 15.9002 13.2449C15.9002 13.9491 15.6204 14.6244 15.1225 15.1223C14.6246 15.6202 13.9493 15.8999 13.2452 15.8999C11.7602 15.8999 10.5752 14.7149 10.5752 13.2449C10.5752 11.7599 11.7602 10.5749 13.2452 10.5749ZM22.8302 25.4999C21.3602 25.4999 20.1752 24.2999 20.1752 22.8299C20.1752 22.1258 20.4549 21.4505 20.9528 20.9525C21.4507 20.4546 22.126 20.1749 22.8302 20.1749C24.3002 20.1749 25.5002 21.3599 25.5002 22.8299C25.5002 23.538 25.2189 24.2172 24.7181 24.7179C24.2174 25.2186 23.5383 25.4999 22.8302 25.4999ZM12.7502 25.5449L10.5002 23.2949L23.2952 10.4999L25.5452 12.7499L12.7502 25.5449Z" fill="white"/>
</svg>
