<svg width="36" height="36" viewBox="0 0 36 36" fill="none" xmlns="http://www.w3.org/2000/svg">
<path d="M7.5 9C5.85 9 4.5 10.35 4.5 12C4.5 13.65 5.85 15 7.5 15C9.15 15 10.5 13.665 10.5 12C10.5 10.335 9.165 9 7.5 9ZM18 6C17.4067 6 16.8266 6.17595 16.3333 6.50559C15.8399 6.83524 15.4554 7.30377 15.2284 7.85195C15.0013 8.40013 14.9419 9.00333 15.0576 9.58527C15.1734 10.1672 15.4591 10.7018 15.8787 11.1213C16.2982 11.5409 16.8328 11.8266 17.4147 11.9424C17.9967 12.0581 18.5999 11.9987 19.1481 11.7716C19.6962 11.5446 20.1648 11.1601 20.4944 10.6667C20.8241 10.1734 21 9.59334 21 9C21 7.335 19.665 6 18 6ZM28.5 3C26.85 3 25.5 4.35 25.5 6C25.5 7.65 26.85 9 28.5 9C30.15 9 31.5 7.665 31.5 6C31.5 4.335 30.165 3 28.5 3ZM5.25 16.5C4.005 16.5 3 17.505 3 18.75V25.5H4.5V33H10.5V25.5H12V18.75C12 17.505 10.995 16.5 9.75 16.5H5.25ZM15.75 13.5C14.505 13.5 13.5 14.505 13.5 15.75V22.5H15V30H21V22.5H22.5V15.75C22.5 14.505 21.495 13.5 20.25 13.5H15.75ZM26.25 10.5C25.005 10.5 24 11.505 24 12.75V19.5H25.5V27H31.5V19.5H33V12.75C33 11.505 31.995 10.5 30.75 10.5H26.25Z" fill="white"/>
</svg>
