<svg width="36" height="36" viewBox="0 0 36 36" fill="none" xmlns="http://www.w3.org/2000/svg">
<path d="M31.5 16.665V7.5C31.5 6.70435 31.1839 5.94129 30.6213 5.37868C30.0587 4.81607 29.2956 4.5 28.5 4.5H22.23C21.6 2.76 19.95 1.5 18 1.5C16.05 1.5 14.4 2.76 13.77 4.5H7.5C5.85 4.5 4.5 5.85 4.5 7.5V28.5C4.5 29.2956 4.81607 30.0587 5.37868 30.6213C5.94129 31.1839 6.70435 31.5 7.5 31.5H16.665C18.555 33.36 21.135 34.5 24 34.5C29.805 34.5 34.5 29.805 34.5 24C34.5 21.135 33.36 18.555 31.5 16.665ZM18 4.5C18.825 4.5 19.5 5.175 19.5 6C19.5 6.825 18.825 7.5 18 7.5C17.175 7.5 16.5 6.825 16.5 6C16.5 5.175 17.175 4.5 18 4.5ZM9 10.5H27V13.5H9V10.5ZM13.62 25.5H9V22.5H13.62C13.545 22.995 13.5 23.49 13.5 24C13.5 24.51 13.545 25.005 13.62 25.5ZM9 19.5V16.5H16.665C15.75 17.355 15.06 18.375 14.52 19.5H9ZM24 31.5C19.86 31.5 16.5 28.14 16.5 24C16.5 19.86 19.86 16.5 24 16.5C28.14 16.5 31.5 19.86 31.5 24C31.5 28.14 28.14 31.5 24 31.5ZM24.75 24.375L29.04 26.91L27.915 28.74L22.5 25.5V18H24.75V24.375Z" fill="white"/>
</svg>
