<svg width="36" height="36" viewBox="0 0 36 36" fill="none" xmlns="http://www.w3.org/2000/svg">
<path d="M9 3C7.335 3 6 4.335 6 6V30C6 30.7956 6.31607 31.5587 6.87868 32.1213C7.44129 32.6839 8.20435 33 9 33H15V30.135L18.135 27H9V24H21.135L24.135 21H9V18H27.135L30 15.135V12L21 3H9ZM19.5 5.25L27.75 13.5H19.5V5.25ZM30.225 19.5C30.114 19.4976 30.0036 19.5176 29.9005 19.5588C29.7974 19.6 29.7037 19.6617 29.625 19.74L28.095 21.27L31.23 24.39L32.76 22.875C33.075 22.545 33.075 22.005 32.76 21.69L30.81 19.74C30.7334 19.6631 30.6421 19.6022 30.5417 19.561C30.4412 19.5198 30.3336 19.4991 30.225 19.5ZM27.21 22.155L18 31.38V34.5H21.12L30.345 25.275L27.21 22.155Z" fill="white"/>
</svg>
