<svg width="36" height="36" viewBox="0 0 36 36" fill="none" xmlns="http://www.w3.org/2000/svg">
<path d="M28.5 12C29.34 12 30 12.645 30 13.5C30 13.8978 29.842 14.2794 29.5607 14.5607C29.2794 14.842 28.8978 15 28.5 15C27.645 15 27 14.325 27 13.5C27 12.645 27.645 12 28.5 12ZM3 3V16.5C3 20.94 6.285 24.75 10.71 25.365C11.64 29.88 15.63 33 20.25 33C21.5304 33 22.7982 32.7478 23.9812 32.2578C25.1641 31.7678 26.2389 31.0497 27.1443 30.1443C28.0497 29.2389 28.7678 28.1641 29.2578 26.9812C29.7478 25.7982 30 24.5304 30 23.25V17.715C31.74 17.085 33 15.435 33 13.5C33 12.3065 32.5259 11.1619 31.682 10.318C30.8381 9.47411 29.6935 9 28.5 9C27.3065 9 26.1619 9.47411 25.318 10.318C24.4741 11.1619 24 12.3065 24 13.5C24 15.435 25.26 17.1 27 17.715V23.115C27 26.865 24 29.865 20.25 29.865C17.25 29.865 14.73 28.05 13.83 25.35C18 24.45 21 20.7 21 16.5V3H15V7.5H18V16.5C18 18.0913 17.3679 19.6174 16.2426 20.7426C15.1174 21.8679 13.5913 22.5 12 22.5C10.4087 22.5 8.88258 21.8679 7.75736 20.7426C6.63214 19.6174 6 18.0913 6 16.5V7.5H9V3H3Z" fill="white"/>
</svg>
