<svg width="36" height="36" viewBox="0 0 36 36" fill="none" xmlns="http://www.w3.org/2000/svg">
<path d="M31.5 24.75C31.5 25.32 31.185 25.815 30.705 26.07L18.855 32.73C18.615 32.91 18.315 33 18 33C17.685 33 17.385 32.91 17.145 32.73L5.29501 26.07C5.05453 25.9436 4.85327 25.7538 4.71312 25.5211C4.57296 25.2883 4.49925 25.0217 4.50001 24.75V11.25C4.50001 10.68 4.81501 10.185 5.29501 9.93L17.145 3.27C17.385 3.09 17.685 3 18 3C18.315 3 18.615 3.09 18.855 3.27L30.705 9.93C31.185 10.185 31.5 10.68 31.5 11.25V24.75ZM18 6.225L15.165 7.83L24 12.915L26.94 11.25L18 6.225ZM9.06001 11.25L18 16.275L20.94 14.625L12.12 9.525L9.06001 11.25ZM7.50001 23.865L16.5 28.935V18.87L7.50001 13.815V23.865ZM28.5 23.865V13.815L19.5 18.87V28.935L28.5 23.865Z" fill="white"/>
</svg>
