<svg width="36" height="36" viewBox="0 0 36 36" fill="none" xmlns="http://www.w3.org/2000/svg">
<path d="M26.715 6.705C26.595 6.705 26.475 6.675 26.37 6.615C23.49 5.13 21 4.5 18 4.5C15.045 4.5 12.225 5.205 9.65998 6.615C9.29998 6.81 8.84998 6.675 8.63999 6.315C8.54643 6.13957 8.52545 5.93443 8.58155 5.7437C8.63765 5.55296 8.76635 5.39185 8.93998 5.295C11.73 3.75 14.79 3 18 3C21.21 3 24 3.705 27.06 5.25C27.435 5.475 27.57 5.925 27.375 6.285C27.3172 6.41117 27.2241 6.51794 27.107 6.59246C26.9899 6.66697 26.8538 6.70605 26.715 6.705ZM5.24998 14.58C5.09998 14.58 4.94998 14.535 4.81498 14.445C4.65655 14.3261 4.54963 14.151 4.51616 13.9558C4.48269 13.7606 4.5252 13.5599 4.63498 13.395C6.11998 11.295 8.00998 9.645 10.26 8.49C15 6.06 21 6.045 25.725 8.475C27.975 9.63 29.865 11.25 31.35 13.35C31.59 13.68 31.5 14.16 31.17 14.4C30.825 14.64 30.36 14.565 30.12 14.25C28.816 12.3742 27.0694 10.8492 25.035 9.81C20.73 7.605 15.225 7.605 10.935 9.825C8.89498 10.875 7.18498 12.375 5.83498 14.25C5.71498 14.475 5.48998 14.58 5.24998 14.58ZM14.625 32.685C14.43 32.685 14.25 32.61 14.1 32.46C12.795 31.155 12.09 30.315 11.085 28.5C10.05 26.655 9.50998 24.405 9.50998 21.99C9.50998 17.535 13.32 13.905 18 13.905C22.68 13.905 26.49 17.535 26.49 21.99C26.49 22.1889 26.411 22.3797 26.2703 22.5203C26.1297 22.661 25.9389 22.74 25.74 22.74C25.5411 22.74 25.3503 22.661 25.2097 22.5203C25.069 22.3797 24.99 22.1889 24.99 21.99C24.99 18.36 21.855 15.405 18 15.405C14.145 15.405 11.01 18.36 11.01 21.99C11.01 24.15 11.49 26.145 12.405 27.75C13.365 29.49 14.025 30.225 15.18 31.395C15.465 31.695 15.465 32.16 15.18 32.46C15 32.61 14.82 32.685 14.625 32.685ZM25.38 29.91C23.595 29.91 22.02 29.46 20.73 28.575C18.495 27.06 17.16 24.6 17.16 21.99C17.16 21.7911 17.239 21.6003 17.3797 21.4597C17.5203 21.319 17.7111 21.24 17.91 21.24C18.1089 21.24 18.2997 21.319 18.4403 21.4597C18.581 21.6003 18.66 21.7911 18.66 21.99C18.66 24.105 19.74 26.1 21.57 27.33C22.635 28.05 23.88 28.395 25.38 28.395C25.74 28.395 26.34 28.35 26.94 28.245C27.345 28.17 27.75 28.44 27.81 28.86C27.885 29.25 27.615 29.655 27.195 29.73C26.34 29.895 25.59 29.91 25.38 29.91ZM22.365 33H22.17C19.785 32.31 18.225 31.425 16.59 29.82C15.5527 28.7978 14.7304 27.5785 14.1714 26.2338C13.6124 24.8892 13.328 23.4462 13.335 21.99C13.335 19.56 15.405 17.58 17.955 17.58C20.505 17.58 22.575 19.56 22.575 21.99C22.575 23.595 24 24.9 25.695 24.9C27.42 24.9 28.815 23.595 28.815 21.99C28.815 16.335 23.94 11.745 17.94 11.745C13.68 11.745 9.74998 14.115 8.02498 17.79C7.43998 19.005 7.13998 20.43 7.13998 21.99C7.13998 23.16 7.24498 25.005 8.14498 27.405C8.29498 27.795 8.09998 28.23 7.70998 28.365C7.52483 28.4317 7.32095 28.4236 7.14169 28.3424C6.96242 28.2611 6.8219 28.1132 6.74998 27.93C5.99998 25.965 5.65498 24 5.65498 21.99C5.65498 20.19 5.99998 18.555 6.67498 17.13C8.66998 12.945 13.095 10.23 17.94 10.23C24.75 10.23 30.315 15.495 30.315 21.975C30.315 24.405 28.245 26.385 25.695 26.385C23.145 26.385 21.075 24.405 21.075 21.975C21.075 20.37 19.68 19.065 17.955 19.065C16.23 19.065 14.835 20.37 14.835 21.975C14.835 24.54 15.825 26.94 17.64 28.74C19.065 30.15 20.43 30.93 22.545 31.5C22.95 31.62 23.175 32.04 23.07 32.43C22.995 32.775 22.68 33 22.365 33Z" fill="white"/>
</svg>
