<svg width="36" height="36" viewBox="0 0 36 36" fill="none" xmlns="http://www.w3.org/2000/svg">
<path d="M20.25 12H18V19.5L24.42 23.31L25.5 21.495L20.25 18.375V12ZM19.5 4.5C15.9196 4.5 12.4858 5.92232 9.95406 8.45406C7.42232 10.9858 6 14.4196 6 18H1.5L7.44 24.045L13.5 18H9C9 15.2152 10.1062 12.5445 12.0754 10.5754C14.0445 8.60625 16.7152 7.5 19.5 7.5C22.2848 7.5 24.9555 8.60625 26.9246 10.5754C28.8938 12.5445 30 15.2152 30 18C30 20.7848 28.8938 23.4555 26.9246 25.4246C24.9555 27.3938 22.2848 28.5 19.5 28.5C16.605 28.5 13.98 27.315 12.09 25.41L9.96 27.54C11.2072 28.8009 12.6933 29.8006 14.3313 30.4805C15.9693 31.1604 17.7265 31.507 19.5 31.5C23.0804 31.5 26.5142 30.0777 29.0459 27.5459C31.5777 25.0142 33 21.5804 33 18C33 14.4196 31.5777 10.9858 29.0459 8.45406C26.5142 5.92232 23.0804 4.5 19.5 4.5Z" fill="white"/>
</svg>
