<svg width="36" height="36" viewBox="0 0 36 36" fill="none" xmlns="http://www.w3.org/2000/svg">
<path d="M22.5 21C18.495 21 10.5 22.995 10.5 27V30H34.5V27C34.5 22.995 26.505 21 22.5 21ZM9 15V10.5H6V15H1.5V18H6V22.5H9V18H13.5V15M22.5 18C24.0913 18 25.6174 17.3679 26.7426 16.2426C27.8679 15.1174 28.5 13.5913 28.5 12C28.5 10.4087 27.8679 8.88258 26.7426 7.75736C25.6174 6.63214 24.0913 6 22.5 6C20.9087 6 19.3826 6.63214 18.2574 7.75736C17.1321 8.88258 16.5 10.4087 16.5 12C16.5 13.5913 17.1321 15.1174 18.2574 16.2426C19.3826 17.3679 20.9087 18 22.5 18Z" fill="white"/>
</svg>
