<svg width="36" height="36" viewBox="0 0 36 36" fill="none" xmlns="http://www.w3.org/2000/svg">
<path d="M18 8.25C19.3924 8.25 20.7277 8.80312 21.7123 9.78769C22.6969 10.7723 23.25 12.1076 23.25 13.5C23.25 14.8924 22.6969 16.2277 21.7123 17.2123C20.7277 18.1969 19.3924 18.75 18 18.75C16.6076 18.75 15.2723 18.1969 14.2877 17.2123C13.3031 16.2277 12.75 14.8924 12.75 13.5C12.75 12.1076 13.3031 10.7723 14.2877 9.78769C15.2723 8.80312 16.6076 8.25 18 8.25ZM7.5 12C8.34 12 9.12 12.225 9.795 12.63C9.57 14.775 10.2 16.905 11.49 18.57C10.74 20.01 9.24 21 7.5 21C6.30653 21 5.16193 20.5259 4.31802 19.682C3.47411 18.8381 3 17.6935 3 16.5C3 15.3065 3.47411 14.1619 4.31802 13.318C5.16193 12.4741 6.30653 12 7.5 12ZM28.5 12C29.6935 12 30.8381 12.4741 31.682 13.318C32.5259 14.1619 33 15.3065 33 16.5C33 17.6935 32.5259 18.8381 31.682 19.682C30.8381 20.5259 29.6935 21 28.5 21C26.76 21 25.26 20.01 24.51 18.57C25.8178 16.8816 26.4249 14.7543 26.205 12.63C26.88 12.225 27.66 12 28.5 12ZM8.25 27.375C8.25 24.27 12.615 21.75 18 21.75C23.385 21.75 27.75 24.27 27.75 27.375V30H8.25V27.375ZM0 30V27.75C0 25.665 2.835 23.91 6.675 23.4C5.79 24.42 5.25 25.83 5.25 27.375V30H0ZM36 30H30.75V27.375C30.75 25.83 30.21 24.42 29.325 23.4C33.165 23.91 36 25.665 36 27.75V30Z" fill="white"/>
</svg>
